# xmcd CD database file
#
# Track frame offsets:
#	150
#	19690
#	78611
#	126815
#	169528
#	194904
#
# Disc length: 3885 seconds
#
# Revision: 0
# Processed by: cddbd v1.5.2PL0 Copyright (c) Steve Scherf et al.
# Submitted via: CDex 1.70beta1
#
DISCID=4b0f2b06
DTITLE=Stan Richardson - Moon On The Water - Disc 2
DYEAR=2005
DGENRE=New Age
TTITLE0=Daiwa Gaku
TTITLE1=Mukaiji
TTITLE2=Jinbo Sanya
TTITLE3=Mujushin Kyoku
TTITLE4=Shingetsu
TTITLE5=Renpo-ken Tsuru no Sugomori
EXTD=YEAR: 2005
EXTT0=
EXTT1=
EXTT2=
EXTT3=
EXTT4=
EXTT5=
PLAYORDER=
